<svg width="597" height="421" xmlns="http://www.w3.org/2000/svg" xmlns:xlink="http://www.w3.org/1999/xlink" viewBox="0.00 0.00 351.15 148.49">
<g id="graph0" class="graph" transform="translate(4.000002441406252,144.4900051879883) scale(1)">
<title>finite_state_machine</title>
<polygon fill="white" stroke="transparent" points="-4,4 -4,-144.49 347.15,-144.49 347.15,4 -4,4"/>
<!-- init -->
<g id="node1" class="node">
<title>init</title>
<ellipse fill="black" stroke="black" cx="1.8" cy="-24.69" rx="1.8" ry="1.8"/>
</g>
<!-- q0 -->
<g id="node2" class="node">
<title>q0</title>
<ellipse fill="none" stroke="black" cx="65.29" cy="-24.69" rx="20.86" ry="20.86"/>
<text text-anchor="middle" x="65.29" y="-20.49" font-family="Helvetica,Arial,sans-serif" font-size="14.00">q0</text><ellipse fill="none" stroke="black" cx="65.29" cy="-24.69" rx="24.89" ry="24.89"/>

</g>
<!-- init&#45;&gt;q0 -->
<g id="edge1" class="edge">
<title>init-&gt;q0</title>
<path fill="none" stroke="black" d="M3.87,-24.69C7.27,-24.69 18.34,-24.69 30.09,-24.69"/>
<polygon fill="black" stroke="black" points="30.42,-28.19 40.42,-24.69 30.42,-21.19 30.42,-28.19"/>
</g>
<!-- q1 -->

<!-- q1&#45;&gt;q1 -->
<g id="edge2" class="edge">
<title>q0-&gt;q2</title>
<path fill="none" stroke="black" d="M85.9,-39.22C98.47,-48.53 114.9,-60.7 128.32,-70.64"/>
<polygon fill="black" stroke="black" points="126.51,-73.66 136.62,-76.8 130.67,-68.03 126.51,-73.66"/>
<text text-anchor="middle" x="111.49" y="-64.89" font-family="Helvetica,Arial,sans-serif" font-size="14.00">0</text>
</g>
<!-- q1&#45;&gt;q0 -->

<!-- q&#45;&gt;q -->
<g id="edge3" class="edge">
<title>q0-&gt;q1</title>
<path fill="none" stroke="black" d="M90.3,-26.2C137.09,-29.13 240.38,-35.61 291.54,-38.82"/>
<polygon fill="black" stroke="black" points="291.43,-42.32 301.63,-39.45 291.87,-35.33 291.43,-42.32"/>
<text text-anchor="middle" x="195.87" y="-37.89" font-family="Helvetica,Arial,sans-serif" font-size="14.00">1</text>
</g>
<!-- q&#45;&gt;q -->

<!-- q&#45;&gt;q -->
<g id="edge6" class="edge">
<title>q2-&gt;q3</title>
<path fill="none" stroke="black" d="M167.27,-104.43C173.9,-111.45 182.67,-118.96 192.37,-122.69 200.08,-125.65 208.07,-123.18 215.13,-118.83"/>
<polygon fill="black" stroke="black" points="217.57,-121.37 223.48,-112.57 213.38,-115.77 217.57,-121.37"/>
<text text-anchor="middle" x="195.87" y="-127.89" font-family="Helvetica,Arial,sans-serif" font-size="14.00">0</text>
</g>
<!-- q&#45;&gt;q -->
<g id="edge7" class="edge">
<title style="">q2-&gt;q3</title>
<path fill="none" stroke="black" d="M174.62,-90.87C184.44,-91.94 196.47,-93.26 207.35,-94.45"/>
<polygon fill="black" stroke="black" points="206.99,-97.93 217.31,-95.53 207.75,-90.97 206.99,-97.93"/>
<text text-anchor="middle" x="195.87" y="-96.89" font-family="Helvetica,Arial,sans-serif" font-size="14.00" style="">1</text>
</g>
<!-- q&#45;&gt;q -->
<g id="edge5" class="edge">
<title>q1-&gt;q0</title>
<path fill="none" stroke="black" d="M302.25,-34.7C278.41,-27.6 236.36,-16.2 199.37,-11.89 165.59,-7.96 126.87,-12.73 99.94,-17.52"/>
<polygon fill="black" stroke="black" points="99.06,-14.12 89.88,-19.41 100.36,-21 99.06,-14.12"/>
<text text-anchor="middle" x="195.87" y="-16.89" font-family="Helvetica,Arial,sans-serif" font-size="14.00">1</text>
</g>
<!-- q&#45;&gt;q -->
<g id="node4" class="node">
<title>q1</title>
<ellipse fill="none" stroke="black" cx="322.45" cy="-40.69" rx="20.89" ry="20.89"/>
<text text-anchor="middle" x="322.45" y="-36.49" font-family="Helvetica,Arial,sans-serif" font-size="14.00">q1</text>
</g><g id="edge4" class="edge">
<title>q1-&gt;q3</title>
<path fill="none" stroke="black" d="M302.32,-46.51C294.07,-49.51 284.54,-53.65 276.76,-58.89 270.34,-63.23 264.14,-68.79 258.69,-74.35"/>
<polygon fill="black" stroke="black" points="256,-72.1 251.77,-81.81 261.14,-76.86 256,-72.1"/>
<text text-anchor="middle" x="280.26" y="-63.89" font-family="Helvetica,Arial,sans-serif" font-size="14.00">0</text>
</g>
<!-- q1&#45;&gt;q -->
<g id="node3" class="node">
<title>q2</title>
<ellipse fill="none" stroke="black" cx="153.68" cy="-88.69" rx="20.89" ry="20.89"/>
<text text-anchor="middle" x="153.68" y="-84.49" font-family="Helvetica,Arial,sans-serif" font-size="14.00">q2</text>
</g><g id="edge8" class="edge">
<title>q3-&gt;q1</title>
<path fill="none" stroke="black" d="M257.57,-90.06C265.89,-86.26 275.64,-81.28 283.76,-75.69 289.36,-71.84 294.96,-67.18 300.07,-62.54"/>
<polygon fill="black" stroke="black" points="302.78,-64.8 307.62,-55.38 297.96,-59.72 302.78,-64.8"/>
<text text-anchor="middle" x="280.26" y="-83.89" font-family="Helvetica,Arial,sans-serif" font-size="14.00">0</text>
</g><g id="edge9" class="edge">
<title>q3-&gt;q2</title>
<path fill="none" stroke="black" d="M222.04,-84.33C215.54,-79.41 207.56,-74.43 199.37,-71.89 193.14,-69.96 186.51,-70.81 180.32,-72.91"/>
<polygon fill="black" stroke="black" points="178.79,-69.76 171.07,-77.02 181.63,-76.16 178.79,-69.76"/>
<text text-anchor="middle" x="195.87" y="-75.89" font-family="Helvetica,Arial,sans-serif" font-size="14.00">1</text>
</g>
<!-- q2&#45;&gt;q -->
<g id="node5" class="node">
<title>q3</title>
<ellipse fill="none" stroke="black" cx="238.07" cy="-97.69" rx="20.89" ry="20.89"/>
<text text-anchor="middle" x="238.07" y="-93.49" font-family="Helvetica,Arial,sans-serif" font-size="14.00">q3</text>
</g>
</g>
</svg>