<svg width="849" height="756" xmlns="http://www.w3.org/2000/svg" xmlns:xlink="http://www.w3.org/1999/xlink" viewBox="0.00 0.00 351.15 108.39">
<g id="graph0" class="graph" transform="translate(4.000003051757801,104.38999969482421) scale(1)">
<title>finite_state_machine</title>
<polygon fill="white" stroke="transparent" points="-4,4 -4,-104.39 347.15,-104.39 347.15,4 -4,4"/>
<!-- init -->
<g id="node1" class="node">
<title>init</title>
<ellipse fill="black" stroke="black" cx="1.8" cy="-49.69" rx="1.8" ry="1.8"/>
</g>
<!-- q0 -->
<g id="node3" class="node">
<title>q0</title>
<ellipse fill="none" stroke="black" cx="61.29" cy="-49.69" rx="20.89" ry="20.89"/>
<text text-anchor="middle" x="61.29" y="-45.49" font-family="Helvetica,Arial,sans-serif" font-size="14.00">q0</text>
</g>
<!-- init&#45;&gt;q0 -->
<g id="edge1" class="edge">
<title>init-&gt;q0</title>
<path fill="none" stroke="black" d="M3.8,-49.69C7.17,-49.69 18.55,-49.69 30.23,-49.69"/>
<polygon fill="black" stroke="black" points="30.38,-53.19 40.38,-49.69 30.38,-46.19 30.38,-53.19"/>
</g>
<!-- q3 -->

<!-- q4 -->
<g id="node2" class="node">
<title>q4</title>
<ellipse fill="none" stroke="black" cx="318.45" cy="-49.69" rx="20.86" ry="20.86"/>
<ellipse fill="none" stroke="black" cx="318.45" cy="-49.69" rx="24.89" ry="24.89"/>
<text text-anchor="middle" x="318.45" y="-45.49" font-family="Helvetica,Arial,sans-serif" font-size="14.00">q4</text>
</g>
<!-- q0&#45;&gt;q0 -->

<!-- q0&#45;&gt;q0 -->
<g id="edge2" class="edge">
<title>q0-&gt;q1</title>
<path fill="none" stroke="black" d="M80.99,-56.5C91.52,-60.34 104.89,-65.2 116.65,-69.49"/>
<polygon fill="black" stroke="black" points="115.47,-72.78 126.06,-72.91 117.86,-66.2 115.47,-72.78"/>
<text text-anchor="middle" x="103.49" y="-68.89" font-family="Helvetica,Arial,sans-serif" font-size="14.00">ε</text>
</g>
<g id="node4" class="node">
<title>q1</title>
<ellipse fill="none" stroke="black" cx="145.68" cy="-79.69" rx="20.89" ry="20.89"/>
<text text-anchor="middle" x="145.68" y="-75.49" font-family="Helvetica,Arial,sans-serif" font-size="14.00">q1</text>
</g><!-- q0&#45;&gt;q1 -->

<!-- q0&#45;&gt;q1 -->

<!-- q0&#45;&gt;q1 -->
<g id="node5" class="node">
<title>q2</title>
<ellipse fill="none" stroke="black" cx="145.68" cy="-20.69" rx="20.89" ry="20.89"/>
<text text-anchor="middle" x="145.68" y="-16.49" font-family="Helvetica,Arial,sans-serif" font-size="14.00">q2</text>
</g>
<!-- q0&#45;&gt;q2 -->
<g id="edge3" class="edge">
<title>q0-&gt;q2</title>
<path fill="none" stroke="black" d="M81.05,-42.73C87.09,-40.51 93.81,-38.07 99.99,-35.89 105.3,-34.02 110.98,-32.05 116.45,-30.18"/>
<polygon fill="black" stroke="black" points="117.6,-33.49 125.95,-26.96 115.35,-26.86 117.6,-33.49"/>
<text text-anchor="middle" x="103.49" y="-40.89" font-family="Helvetica,Arial,sans-serif" font-size="14.00">ε</text>
</g><g id="node6" class="node">
<title>q3</title>
<ellipse fill="none" stroke="black" cx="230.07" cy="-49.69" rx="20.89" ry="20.89"/>
<text text-anchor="middle" x="230.07" y="-45.49" font-family="Helvetica,Arial,sans-serif" font-size="14.00">q3</text>
</g>
<!-- q1&#45;&gt;q3 -->
<g id="edge4" class="edge">
<title>q1-&gt;q3</title>
<path fill="none" stroke="black" d="M165.38,-72.89C175.91,-69.05 189.27,-64.18 201.04,-59.9"/>
<polygon fill="black" stroke="black" points="202.25,-63.18 210.45,-56.47 199.85,-56.61 202.25,-63.18"/>
<text text-anchor="middle" x="187.87" y="-68.89" font-family="Helvetica,Arial,sans-serif" font-size="14.00">0</text>
</g><g id="edge5" class="edge">
<title>q2-&gt;q3</title>
<path fill="none" stroke="black" d="M165.41,-26.96C173.43,-29.66 182.87,-32.89 191.37,-35.89 194.46,-36.98 197.69,-38.14 200.89,-39.3"/>
<polygon fill="black" stroke="black" points="199.71,-42.59 210.31,-42.73 202.11,-36.02 199.71,-42.59"/>
<text text-anchor="middle" x="187.87" y="-40.89" font-family="Helvetica,Arial,sans-serif" font-size="14.00">1</text>
</g><g id="edge6" class="edge">
<title>q3-&gt;q4</title>
<path fill="none" stroke="black" d="M251.1,-49.69C260.7,-49.69 272.46,-49.69 283.39,-49.69"/>
<polygon fill="black" stroke="black" points="283.53,-53.19 293.53,-49.69 283.53,-46.19 283.53,-53.19"/>
<text text-anchor="middle" x="272.26" y="-53.89" font-family="Helvetica,Arial,sans-serif" font-size="14.00">1</text>
</g>
</g>
</svg>