<svg width="849" height="705" xmlns="http://www.w3.org/2000/svg" xmlns:xlink="http://www.w3.org/1999/xlink" viewBox="0.00 0.00 266.76 92.19">
<g id="graph0" class="graph" transform="translate(4.000003051757801,88.19000274658202) scale(1)">
<title>finite_state_machine</title>
<polygon fill="white" stroke="transparent" points="-4,4 -4,-88.19 262.76,-88.19 262.76,4 -4,4"/>
<!-- init -->
<g id="node1" class="node">
<title>init</title>
<ellipse fill="black" stroke="black" cx="1.8" cy="-24.69" rx="1.8" ry="1.8"/>
</g>
<!-- q0 -->
<g id="node3" class="node">
<title>q0</title>
<ellipse fill="none" stroke="black" cx="61.29" cy="-24.69" rx="20.89" ry="20.89"/>
<text text-anchor="middle" x="61.29" y="-20.49" font-family="Helvetica,Arial,sans-serif" font-size="14.00">q0</text>
</g>
<!-- init&#45;&gt;q0 -->
<g id="edge1" class="edge">
<title>init-&gt;q0</title>
<path fill="none" stroke="black" d="M3.8,-24.69C7.17,-24.69 18.55,-24.69 30.23,-24.69"/>
<polygon fill="black" stroke="black" points="30.38,-28.19 40.38,-24.69 30.38,-21.19 30.38,-28.19"/>
</g>
<!-- q3 -->

<!-- q4 -->
<g id="edge6" class="edge">
<title>q2-&gt;q2</title>
<path fill="none" stroke="black" d="M225.58,-47.97C224.77,-58.38 227.6,-67.39 234.07,-67.39 238.21,-67.39 240.86,-63.69 242.02,-58.3"/>
<polygon fill="black" stroke="black" points="245.53,-58.14 242.56,-47.97 238.54,-57.77 245.53,-58.14"/>
<text text-anchor="middle" x="234.07" y="-71.59" font-family="Helvetica,Arial,sans-serif" font-size="14.00">2</text>
</g>
<!-- q0&#45;&gt;q0 -->

<!-- q0&#45;&gt;q0 -->

<g id="node4" class="node">
<title>q1</title>
<ellipse fill="none" stroke="black" cx="145.68" cy="-24.69" rx="20.89" ry="20.89"/>
<text text-anchor="middle" x="145.68" y="-20.49" font-family="Helvetica,Arial,sans-serif" font-size="14.00">q1</text>
</g><!-- q0&#45;&gt;q1 -->
<g id="edge2" class="edge">
<title>q0-&gt;q0</title>
<path fill="none" stroke="black" d="M54.38,-44.6C53.42,-54.53 55.73,-63.39 61.29,-63.39 64.77,-63.39 66.98,-59.93 67.91,-54.91"/>
<polygon fill="black" stroke="black" points="71.42,-54.7 68.21,-44.6 64.42,-54.5 71.42,-54.7"/>
<text text-anchor="middle" x="61.29" y="-67.59" font-family="Helvetica,Arial,sans-serif" font-size="14.00">0</text>
</g><g id="edge5" class="edge">
<title>q1-&gt;q2</title>
<path fill="none" stroke="black" d="M166.72,-24.69C176.31,-24.69 188.07,-24.69 199.01,-24.69"/>
<polygon fill="black" stroke="black" points="199.15,-28.19 209.15,-24.69 199.15,-21.19 199.15,-28.19"/>
<text text-anchor="middle" x="187.87" y="-28.89" font-family="Helvetica,Arial,sans-serif" font-size="14.00">ε</text>
</g>
<!-- q0&#45;&gt;q1 -->
<g id="edge3" class="edge">
<title>q0-&gt;q1</title>
<path fill="none" stroke="black" d="M82.24,-24.69C91.95,-24.69 103.84,-24.69 114.62,-24.69"/>
<polygon fill="black" stroke="black" points="114.92,-28.19 124.92,-24.69 114.92,-21.19 114.92,-28.19"/>
<text text-anchor="middle" x="103.49" y="-28.89" font-family="Helvetica,Arial,sans-serif" font-size="14.00">ε</text>
</g>
<!-- q0&#45;&gt;q1 -->
<g id="node2" class="node">
<title>q2</title>
<ellipse fill="none" stroke="black" cx="234.07" cy="-24.69" rx="20.86" ry="20.86"/>
<text text-anchor="middle" x="234.07" y="-20.49" font-family="Helvetica,Arial,sans-serif" font-size="14.00">q2</text><ellipse fill="none" stroke="black" cx="234.07" cy="-24.69" rx="24.89" ry="24.89"/>

</g><g id="edge4" class="edge">
<title>q1-&gt;q1</title>
<path fill="none" stroke="black" d="M138.08,-44.2C136.91,-54.29 139.45,-63.39 145.68,-63.39 149.67,-63.39 152.15,-59.65 153.1,-54.32"/>
<polygon fill="black" stroke="black" points="156.61,-54.26 153.28,-44.2 149.61,-54.14 156.61,-54.26"/>
<text text-anchor="middle" x="145.68" y="-67.59" font-family="Helvetica,Arial,sans-serif" font-size="14.00">1</text>
</g>
</g>
</svg>