<svg width="597" height="421" xmlns="http://www.w3.org/2000/svg" xmlns:xlink="http://www.w3.org/1999/xlink" viewBox="0.00 0.00 359.15 203.39">
<g id="graph0" class="graph" transform="translate(4.000002441406252,199.38999908447272) scale(1)">
<title>finite_state_machine</title>
<polygon fill="white" stroke="transparent" points="-4,4 -4,-199.39 355.15,-199.39 355.15,4 -4,4"/>
<!-- init -->
<g id="node1" class="node">
<title>init</title>
<ellipse fill="black" stroke="black" cx="1.8" cy="-44.69" rx="1.8" ry="1.8"/>
</g>
<!-- q0 -->
<g id="node4" class="node">
<title>q0</title>
<ellipse fill="none" stroke="black" cx="61.29" cy="-44.69" rx="20.89" ry="20.89"/>
<text text-anchor="middle" x="61.29" y="-40.49" font-family="Helvetica,Arial,sans-serif" font-size="14.00">q0</text>
</g>
<!-- init&#45;&gt;q0 -->
<g id="edge1" class="edge">
<title>init-&gt;q0</title>
<path fill="none" stroke="black" d="M3.8,-44.69C7.17,-44.69 18.55,-44.69 30.23,-44.69"/>
<polygon fill="black" stroke="black" points="30.38,-48.19 40.38,-44.69 30.38,-41.19 30.38,-48.19"/>
</g>
<!-- q1 -->

<!-- q1&#45;&gt;q1 -->

<!-- q1&#45;&gt;q0 -->
<g id="edge2" class="edge">
<title>q0-&gt;q0</title>
<path fill="none" stroke="black" d="M57.8,-65.39C57.42,-75 58.58,-83.39 61.29,-83.39 62.94,-83.39 64.02,-80.27 64.52,-75.66"/>
<polygon fill="black" stroke="black" points="68.03,-75.48 64.79,-65.39 61.03,-75.3 68.03,-75.48"/>
<text text-anchor="middle" x="61.29" y="-87.59" font-family="Helvetica,Arial,sans-serif" font-size="14.00">0</text>
</g>
<!-- q&#45;&gt;q -->
<g id="edge4" class="edge">
<title style="">q0-&gt;q0</title>
<path fill="none" stroke="black" d="M55.39,-64.74C52.61,-82.49 54.58,-101.39 61.29,-101.39 66.75,-101.39 69.07,-88.91 68.26,-74.72"/>
<polygon fill="black" stroke="black" points="71.74,-74.32 67.2,-64.74 64.78,-75.06 71.74,-74.32"/>
<text text-anchor="middle" x="61.29" y="-105.59" font-family="Helvetica,Arial,sans-serif" font-size="14.00" style="">1</text>
</g>
<g id="node3" class="node">
<title>q4</title>
<ellipse fill="none" stroke="black" cx="326.45" cy="-66.69" rx="20.86" ry="20.86"/>
<ellipse fill="none" stroke="black" cx="326.45" cy="-66.69" rx="24.89" ry="24.89"/>
<text text-anchor="middle" x="326.45" y="-62.49" font-family="Helvetica,Arial,sans-serif" font-size="14.00">q4</text>
</g><g id="node2" class="node">
<title>q3</title>
<ellipse fill="none" stroke="black" cx="234.07" cy="-170.69" rx="20.86" ry="20.86"/>
<text text-anchor="middle" x="234.07" y="-166.49" font-family="Helvetica,Arial,sans-serif" font-size="14.00">q3</text><ellipse fill="none" stroke="black" cx="234.07" cy="-170.69" rx="24.89" ry="24.89"/>

</g><!-- q&#45;&gt;q -->

<!-- q&#45;&gt;q -->

<!-- q&#45;&gt;q -->
<g id="edge3" class="edge">
<title>q0-&gt;q1</title>
<path fill="none" stroke="black" d="M79.36,-55.68C90.93,-63.11 106.41,-73.07 119.4,-81.43"/>
<polygon fill="black" stroke="black" points="117.61,-84.44 127.91,-86.91 121.4,-78.55 117.61,-84.44"/>
<text text-anchor="middle" x="103.49" y="-76.89" font-family="Helvetica,Arial,sans-serif" font-size="14.00">0</text>
</g>
<!-- q&#45;&gt;q -->
<g id="edge7" class="edge">
<title>q1-&gt;q4</title>
<path fill="none" stroke="black" d="M166.66,-96.27C189.18,-94.47 226.83,-90.82 258.76,-84.69 269.92,-82.55 281.95,-79.53 292.68,-76.58"/>
<polygon fill="black" stroke="black" points="293.84,-79.89 302.5,-73.79 291.93,-73.15 293.84,-79.89"/>
<text text-anchor="middle" x="234.07" y="-95.89" font-family="Helvetica,Arial,sans-serif" font-size="14.00">1</text>
</g><g id="edge6" class="edge">
<title>q1-&gt;q3</title>
<path fill="none" stroke="black" d="M162.12,-110.74C174.57,-121.26 192.35,-136.29 207,-148.67"/>
<polygon fill="black" stroke="black" points="204.86,-151.44 214.76,-155.22 209.38,-146.1 204.86,-151.44"/>
<text text-anchor="middle" x="187.87" y="-137.89" font-family="Helvetica,Arial,sans-serif" font-size="14.00">0</text>
</g>
<!-- q&#45;&gt;q -->

<!-- q&#45;&gt;q -->

<!-- q&#45;&gt;q -->
<g id="edge5" class="edge">
<title>q1-&gt;q2</title>
<path fill="none" stroke="black" d="M161.73,-84.28C175.15,-72.32 194.99,-54.64 210.34,-40.95"/>
<polygon fill="black" stroke="black" points="212.77,-43.48 217.9,-34.21 208.11,-38.25 212.77,-43.48"/>
<text text-anchor="middle" x="187.87" y="-67.89" font-family="Helvetica,Arial,sans-serif" font-size="14.00">0</text>
</g>
<!-- q&#45;&gt;q -->
<g id="node5" class="node">
<title>q1</title>
<ellipse fill="none" stroke="black" cx="145.68" cy="-97.69" rx="20.89" ry="20.89"/>
<text text-anchor="middle" x="145.68" y="-93.49" font-family="Helvetica,Arial,sans-serif" font-size="14.00">q1</text>
</g><g id="edge10" class="edge">
<title>q2-&gt;q4</title>
<path fill="none" stroke="black" d="M252.92,-29.78C264.88,-35.87 280.92,-44.03 294.88,-51.13"/>
<polygon fill="black" stroke="black" points="293.64,-54.43 304.14,-55.84 296.81,-48.19 293.64,-54.43"/>
<text text-anchor="middle" x="280.26" y="-49.89" font-family="Helvetica,Arial,sans-serif" font-size="14.00">1</text>
</g>
<!-- q1&#45;&gt;q -->
<g id="node6" class="node">
<title>q2</title>
<ellipse fill="none" stroke="black" cx="234.07" cy="-20.69" rx="20.89" ry="20.89"/>
<text text-anchor="middle" x="234.07" y="-16.49" font-family="Helvetica,Arial,sans-serif" font-size="14.00">q2</text>
</g><g id="edge8" class="edge">
<title>q2-&gt;q0</title>
<path fill="none" stroke="black" d="M213.44,-23.45C183.65,-27.64 126.79,-35.63 91.94,-40.53"/>
<polygon fill="black" stroke="black" points="91.3,-37.08 81.88,-41.94 92.27,-44.01 91.3,-37.08"/>
<text text-anchor="middle" x="145.68" y="-40.89" font-family="Helvetica,Arial,sans-serif" font-size="14.00">0</text>
</g>
<g id="edge9" class="edge">
<title>q2-&gt;q2</title>
<path fill="none" stroke="black" d="M225.8,-39.81C224.39,-50.05 227.15,-59.39 234.07,-59.39 238.5,-59.39 241.22,-55.56 242.24,-50.11"/>
<polygon fill="black" stroke="black" points="245.74,-49.84 242.34,-39.81 238.74,-49.77 245.74,-49.84"/>
<text text-anchor="middle" x="234.07" y="-63.59" font-family="Helvetica,Arial,sans-serif" font-size="14.00">0</text>
</g></g>
</svg>