<svg width="597" height="421" xmlns="http://www.w3.org/2000/svg" xmlns:xlink="http://www.w3.org/1999/xlink" viewBox="0.00 0.00 266.76 125.39">
<g id="graph0" class="graph" transform="translate(3.999996948242199,121.38999938964844) scale(1)">
<title>finite_state_machine</title>
<polygon fill="white" stroke="transparent" points="-4,4 -4,-121.39 262.76,-121.39 262.76,4 -4,4"/>
<!-- init -->
<g id="node1" class="node">
<title>init</title>
<ellipse fill="black" stroke="black" cx="1.8" cy="-24.69" rx="1.8" ry="1.8"/>
</g>
<!-- q1 -->
<g id="node3" class="node">
<title>q0</title>
<ellipse fill="none" stroke="black" cx="61.29" cy="-24.69" rx="20.89" ry="20.89"/>
<text text-anchor="middle" x="61.29" y="-20.49" font-family="Helvetica,Arial,sans-serif" font-size="14.00">q0</text>
</g>
<!-- init&#45;&gt;q1 -->
<g id="edge1" class="edge">
<title>init-&gt;q0</title>
<path fill="none" stroke="black" d="M3.8,-24.69C7.17,-24.69 18.55,-24.69 30.23,-24.69"/>
<polygon fill="black" stroke="black" points="30.38,-28.19 40.38,-24.69 30.38,-21.19 30.38,-28.19"/>
</g>
<!-- q2 -->

<!-- q1&#45;&gt;q2 -->
<g id="edge7" class="edge">
<title>q2-&gt;q2</title>
<path fill="none" stroke="black" d="M229.78,-49.26C229.54,-59.12 230.97,-67.39 234.07,-67.39 236,-67.39 237.29,-64.16 237.92,-59.33"/>
<polygon fill="black" stroke="black" points="241.42,-59.4 238.35,-49.26 234.43,-59.1 241.42,-59.4"/>
<text text-anchor="middle" x="234.07" y="-71.59" font-family="Helvetica,Arial,sans-serif" font-size="14.00">0</text>
</g>
<g id="node2" class="node">
<title>q2</title>
<ellipse fill="none" stroke="black" cx="234.07" cy="-24.69" rx="20.86" ry="20.86"/>
<text text-anchor="middle" x="234.07" y="-20.49" font-family="Helvetica,Arial,sans-serif" font-size="14.00">q2</text><ellipse fill="none" stroke="black" cx="234.07" cy="-24.69" rx="24.89" ry="24.89"/>

</g><!-- q&#45;&gt;q2 -->
<g id="edge8" class="edge">
<title style="">q2-&gt;q2</title>
<path fill="none" stroke="black" d="M226.56,-48.37C223.75,-66.69 226.25,-85.39 234.07,-85.39 240.42,-85.39 243.26,-73.05 242.6,-58.59"/>
<polygon fill="black" stroke="black" points="246.05,-57.97 241.58,-48.37 239.09,-58.66 246.05,-57.97"/>
<text text-anchor="middle" x="234.07" y="-89.59" font-family="Helvetica,Arial,sans-serif" font-size="14.00" style="">1</text>
</g>
<!-- q&#45;&gt;q -->

<!-- q&#45;&gt;q -->

<!-- q&#45;&gt;q -->
<g id="edge9" class="edge">
<title>q2-&gt;q1</title>
<path fill="none" stroke="black" d="M213.64,-9.92C204.91,-4.99 194.34,-1.33 184.37,-3.89 180.22,-4.96 176.04,-6.6 172.04,-8.49"/>
<polygon fill="black" stroke="black" points="170.34,-5.43 163.18,-13.23 173.64,-11.6 170.34,-5.43"/>
<text text-anchor="middle" x="187.87" y="-7.89" font-family="Helvetica,Arial,sans-serif" font-size="14.00">1</text>
</g><g id="edge2" class="edge">
<title>q0-&gt;q0</title>
<path fill="none" stroke="black" d="M54.38,-44.6C53.42,-54.53 55.73,-63.39 61.29,-63.39 64.77,-63.39 66.98,-59.93 67.91,-54.91"/>
<polygon fill="black" stroke="black" points="71.42,-54.7 68.21,-44.6 64.42,-54.5 71.42,-54.7"/>
<text text-anchor="middle" x="61.29" y="-67.59" font-family="Helvetica,Arial,sans-serif" font-size="14.00">0</text>
</g>
<!-- q&#45;&gt;q -->

<!-- q&#45;&gt;q -->
<g id="edge3" class="edge">
<title>q0-&gt;q1</title>
<path fill="none" stroke="black" d="M82.24,-24.69C91.95,-24.69 103.84,-24.69 114.62,-24.69"/>
<polygon fill="black" stroke="black" points="114.92,-28.19 124.92,-24.69 114.92,-21.19 114.92,-28.19"/>
<text text-anchor="middle" x="103.49" y="-28.89" font-family="Helvetica,Arial,sans-serif" font-size="14.00">1</text>
</g>
<!-- q&#45;&gt;q -->
<g id="edge6" class="edge">
<title>q1-&gt;q2</title>
<path fill="none" stroke="black" d="M166.72,-24.69C176.31,-24.69 188.07,-24.69 199.01,-24.69"/>
<polygon fill="black" stroke="black" points="199.15,-28.19 209.15,-24.69 199.15,-21.19 199.15,-28.19"/>
<text text-anchor="middle" x="187.87" y="-28.89" font-family="Helvetica,Arial,sans-serif" font-size="14.00">0</text>
</g>
<!-- q&#45;&gt;q -->
<g id="node4" class="node">
<title>q1</title>
<ellipse fill="none" stroke="black" cx="145.68" cy="-24.69" rx="20.89" ry="20.89"/>
<text text-anchor="middle" x="145.68" y="-20.49" font-family="Helvetica,Arial,sans-serif" font-size="14.00">q1</text>
</g><g id="edge4" class="edge">
<title>q1-&gt;q1</title>
<path fill="none" stroke="black" d="M141.82,-45.39C141.4,-55 142.69,-63.39 145.68,-63.39 147.5,-63.39 148.7,-60.27 149.25,-55.66"/>
<polygon fill="black" stroke="black" points="152.76,-55.49 149.54,-45.39 145.76,-55.29 152.76,-55.49"/>
<text text-anchor="middle" x="145.68" y="-67.59" font-family="Helvetica,Arial,sans-serif" font-size="14.00">0</text>
</g><g id="edge5" class="edge">
<title style="">q1-&gt;q1</title>
<path fill="none" stroke="black" d="M139.21,-44.45C136.06,-62.28 138.22,-81.39 145.68,-81.39 151.75,-81.39 154.31,-68.78 153.37,-54.48"/>
<polygon fill="black" stroke="black" points="156.83,-53.96 152.15,-44.45 149.88,-54.8 156.83,-53.96"/>
<text text-anchor="middle" x="145.68" y="-85.59" font-family="Helvetica,Arial,sans-serif" font-size="14.00" style="">1</text>
</g>
</g>
</svg>