<svg width="597" height="421" xmlns="http://www.w3.org/2000/svg" xmlns:xlink="http://www.w3.org/1999/xlink" viewBox="0.00 0.00 182.37 107.86">
<g id="graph0" class="graph" transform="translate(3.999996948242199,103.86000061035156) scale(1)">
<title>finite_state_machine</title>
<polygon fill="white" stroke="transparent" points="-4,4 -4,-103.86 178.37,-103.86 178.37,4 -4,4"/>
<!-- init -->
<g id="node1" class="node">
<title>init</title>
<ellipse fill="black" stroke="black" cx="1.8" cy="-40.37" rx="1.8" ry="1.8"/>
</g>
<!-- q1 -->
<g id="node3" class="node">
<title>q0</title>
<ellipse fill="none" stroke="black" cx="61.29" cy="-40.37" rx="20.89" ry="20.89"/>
<text text-anchor="middle" x="61.29" y="-36.17" font-family="Helvetica,Arial,sans-serif" font-size="14.00">q0</text>
</g>
<!-- init&#45;&gt;q1 -->
<g id="edge1" class="edge">
<title>init-&gt;q0</title>
<path fill="none" stroke="black" d="M3.8,-40.37C7.17,-40.37 18.55,-40.37 30.23,-40.37"/>
<polygon fill="black" stroke="black" points="30.38,-43.87 40.38,-40.37 30.38,-36.87 30.38,-43.87"/>
</g>
<!-- q2 -->

<!-- q1&#45;&gt;q2 -->

<!-- q&#45;&gt;q2 -->
<g id="edge5" class="edge">
<title>q1-&gt;q1</title>
<path fill="none" stroke="black" d="M141.19,-63.65C140.38,-74.06 143.21,-83.06 149.68,-83.06 153.82,-83.06 156.48,-79.37 157.63,-73.97"/>
<polygon fill="black" stroke="black" points="161.15,-73.81 158.17,-63.65 154.16,-73.45 161.15,-73.81"/>
<text text-anchor="middle" x="149.68" y="-87.26" font-family="Helvetica,Arial,sans-serif" font-size="14.00">1</text>
</g><g id="edge6" class="edge">
<title>q1-&gt;q0</title>
<path fill="none" stroke="black" d="M124.91,-38.1C116.99,-37.59 108.11,-37.27 99.99,-37.57 97.46,-37.66 94.84,-37.79 92.22,-37.94"/>
<polygon fill="black" stroke="black" points="91.98,-34.45 82.23,-38.61 92.44,-41.44 91.98,-34.45"/>
<text text-anchor="middle" x="103.49" y="-41.57" font-family="Helvetica,Arial,sans-serif" font-size="14.00">1</text>
</g>
<!-- q&#45;&gt;q -->

<!-- q&#45;&gt;q -->
<g id="edge3" class="edge">
<title>q0-&gt;q1</title>
<path fill="none" stroke="black" d="M79.35,-50.49C85.62,-53.67 92.91,-56.77 99.99,-58.37 106.33,-59.81 112.97,-59 119.23,-57.11"/>
<polygon fill="black" stroke="black" points="120.64,-60.31 128.67,-53.39 118.08,-53.8 120.64,-60.31"/>
<text text-anchor="middle" x="103.49" y="-62.57" font-family="Helvetica,Arial,sans-serif" font-size="14.00">0</text>
</g><g id="edge4" class="edge">
<title style="">q0-&gt;q1</title>
<path fill="none" stroke="black" d="M71.89,-22.51C80.11,-9.84 92.83,4 106.99,-1.57 114.07,-4.36 120.67,-8.98 126.43,-14.08"/>
<polygon fill="black" stroke="black" points="124.13,-16.72 133.73,-21.2 129.01,-11.71 124.13,-16.72"/>
<text text-anchor="middle" x="103.49" y="-5.57" font-family="Helvetica,Arial,sans-serif" font-size="14.00" style="">1</text>
</g>
<!-- q&#45;&gt;q -->
<g id="edge2" class="edge">
<title>q0-&gt;q0</title>
<path fill="none" stroke="black" d="M54.38,-60.28C53.42,-70.21 55.73,-79.06 61.29,-79.06 64.77,-79.06 66.98,-75.6 67.91,-70.59"/>
<polygon fill="black" stroke="black" points="71.42,-70.38 68.21,-60.28 64.42,-70.17 71.42,-70.38"/>
<text text-anchor="middle" x="61.29" y="-83.26" font-family="Helvetica,Arial,sans-serif" font-size="14.00">0</text>
</g>
<g id="node2" class="node">
<title>q1</title>
<ellipse fill="none" stroke="black" cx="149.68" cy="-40.37" rx="20.86" ry="20.86"/>
<text text-anchor="middle" x="149.68" y="-36.17" font-family="Helvetica,Arial,sans-serif" font-size="14.00">q1</text><ellipse fill="none" stroke="black" cx="149.68" cy="-40.37" rx="24.89" ry="24.89"/>

</g></g>
</svg>